<svg width="512" height="512" viewBox="0 0 512 512" fill="none" xmlns="http://www.w3.org/2000/svg">
<path d="M256 512C397.385 512 512 397.385 512 256C512 114.615 397.385 0 256 0C114.615 0 0 114.615 0 256C0 397.385 114.615 512 256 512Z" fill="#FF6B35"/>
<path d="M340 180C340 180 320 160 280 160C240 160 200 180 200 180L220 200C220 200 240 190 280 190C320 190 320 200 320 200L340 180Z" fill="white"/>
<path d="M210 220L230 240L250 235L270 240L290 235L310 240L330 220C330 220 340 240 340 280C340 320 320 360 256 360C192 360 172 320 172 280C172 240 182 220 182 220L210 220Z" fill="white"/>
<path fill-rule="evenodd" clip-rule="evenodd" d="M230 240C230 240 220 250 220 270C220 280 225 285 230 285L250 280L230 240ZM282 240L302 280C307 280 312 275 312 270C312 250 302 240 302 240H282Z" fill="#FF6B35"/>
</svg>

